<?xml version="1.0" standalone="no"?>
<!DOCTYPE svg PUBLIC "-//W3C//DTD SVG 20010904//EN"
 "http://www.w3.org/TR/2001/REC-SVG-20010904/DTD/svg10.dtd">
<svg version="1.0" xmlns="http://www.w3.org/2000/svg"
 width="500.000000pt" height="500.000000pt" viewBox="0 0 500.000000 500.000000"
 preserveAspectRatio="xMidYMid meet">
<metadata>
Created by potrace 1.11, written by Peter Selinger 2001-2013
</metadata>
<g transform="translate(0.000000,500.000000) scale(0.100000,-0.100000)"
fill="#000000" stroke="none">
<path d="M0 2500 l0 -2500 2500 0 2500 0 0 2500 0 2500 -2500 0 -2500 0 0
-2500z m2904 1461 c238 -59 387 -139 544 -294 166 -162 265 -357 306 -596 13
-74 16 -169 16 -441 0 -367 -7 -446 -51 -595 -95 -322 -361 -592 -688 -700
-173 -57 -189 -58 -933 -62 l-688 -4 0 165 c0 91 1 166 3 166 1 1 65 13 142
28 l140 27 -4 970 c-1 534 -5 972 -7 974 -2 2 -65 16 -141 30 l-138 26 -3 155
c-1 85 0 160 3 168 4 11 126 12 707 9 685 -3 705 -4 792 -26z"/>
<path d="M2240 2624 l0 -936 248 4 c217 4 255 7 312 26 209 68 349 235 401
477 16 79 19 133 19 435 0 307 -3 355 -20 435 -57 256 -240 449 -460 484 -36
6 -163 11 -282 11 l-218 0 0 -936z"/>
</g>
</svg>
