<?xml version="1.0" standalone="no"?>
<!DOCTYPE svg PUBLIC "-//W3C//DTD SVG 1.1//EN" "http://www.w3.org/Graphics/SVG/1.1/DTD/svg11.dtd" >
<svg>
<metadata>
Created by FontForge 20090622 at Tue Mar 12 16:48:05 2013
 By ffonts
Copyright (c) 2013 by Steven Bonner. All rights reserved.
</metadata>
<defs>
<font id="Langdon" horiz-adv-x="221" >
  <font-face 
    font-family="Langdon"
    font-weight="400"
    font-stretch="normal"
    units-per-em="1000"
    panose-1="0 0 0 0 0 0 0 0 0 0"
    ascent="750"
    descent="-250"
    x-height="700"
    cap-height="700"
    bbox="-5 -76 758 756"
    underline-thickness="50"
    underline-position="-50"
    unicode-range="U+0020-U+E009"
  />
<missing-glyph horiz-adv-x="500" 
d="M0 0v667h500v-667h-500zM80 607v-547h340v547h-340z" />
    <glyph glyph-name=".notdef" horiz-adv-x="500" 
d="M0 0v667h500v-667h-500zM80 607v-547h340v547h-340z" />
    <glyph glyph-name="space" unicode=" " horiz-adv-x="185" 
 />
    <glyph glyph-name="two" unicode="2" horiz-adv-x="449" 
d="M232 267c-56 -58 -63 -119 -63 -149c0 -11 1 -18 1 -18h229v-100h-356s-13 14 -13 88c0 91 45 180 95 237l125 143c29 34 37 55 37 86c0 32 -26 55 -57 55c-30 0 -56 -27 -56 -76v-29h-125v49c0 93 75 156 181 156c107 0 184 -61 184 -156c0 -96 -29 -118 -95 -196z" />
    <glyph glyph-name="three" unicode="3" horiz-adv-x="454" 
d="M296 378c64 -28 115 -81 115 -178c0 -113 -78 -209 -199 -209c-126 0 -182 86 -182 157v55h126v-55c0 -21 20 -57 56 -57c51 0 71 53 71 109c0 75 -22 128 -103 128h-24v100h5c81 0 108 47 108 96c0 52 -24 85 -57 85c-36 0 -56 -37 -56 -58v-47h-126v48
c0 71 56 157 182 157c110 0 176 -67 176 -176c0 -71 -47 -136 -92 -155z" />
    <glyph glyph-name="four" unicode="4" horiz-adv-x="476" 
d="M451 255v-93h-88v-162h-125v162h-212l-1 99l213 439h125v-445h88zM118 255h120v244z" />
    <glyph glyph-name="five" unicode="5" horiz-adv-x="468" 
d="M245 498c84 0 180 -67 180 -177v-121c0 -113 -78 -209 -199 -209c-126 0 -183 86 -183 157v55h127v-55c0 -21 20 -57 56 -57c51 0 71 53 71 109c0 41 -1 97 -1 112c0 52 -37 86 -69 86c-25 0 -43 -17 -51 -36h-123v338h329v-100h-204v-126c12 15 49 24 67 24z" />
    <glyph glyph-name="six" unicode="6" horiz-adv-x="467" 
d="M254 428c114 0 170 -73 170 -155c0 -10 -1 -89 -1 -98c0 -110 -68 -184 -197 -184c-126 0 -183 86 -183 157v351c0 113 74 210 188 210c121 0 175 -86 175 -157v-48h-121v47c0 30 -19 58 -54 58c-48 0 -62 -54 -62 -110v-110c15 21 41 39 85 39zM295 175c0 8 1 88 1 98
c0 35 -30 55 -63 55c-39 0 -64 -18 -64 -36v-144c0 -21 20 -57 57 -57c48 0 69 27 69 84z" />
    <glyph glyph-name="seven" unicode="7" horiz-adv-x="405" 
d="M380 700v-97l-198 -603h-138l201 601h-230v99h365z" />
    <glyph glyph-name="eight" unicode="8" horiz-adv-x="490" 
d="M331 378c64 -28 116 -81 116 -178c0 -113 -79 -209 -199 -209c-124 0 -205 91 -205 209c0 97 51 150 115 178c-45 19 -92 84 -92 155c0 109 65 176 175 176c114 0 182 -63 182 -176c0 -71 -46 -136 -92 -155zM255 91c45 0 64 58 64 109c0 65 -17 114 -74 125
c-58 -11 -75 -60 -75 -125c0 -69 25 -109 85 -109zM247 609c-38 0 -63 -36 -63 -85c0 -38 16 -74 61 -89c44 15 60 51 60 89c0 50 -20 85 -58 85z" />
    <glyph glyph-name="nine" unicode="9" horiz-adv-x="468" 
d="M214 272c-115 0 -171 72 -171 155c0 10 1 89 1 98c0 110 68 184 198 184c126 0 183 -86 183 -157v-352c0 -113 -75 -209 -190 -209c-119 0 -174 86 -174 157v55h120v-55c0 -29 20 -57 54 -57c48 0 64 53 64 109v111c-17 -21 -42 -39 -85 -39zM172 525c0 -8 -1 -89 -1 -98
c0 -35 30 -56 62 -56c40 0 66 19 66 37v143c0 21 -21 58 -57 58c-50 0 -70 -27 -70 -84z" />
    <glyph glyph-name="A" unicode="A" horiz-adv-x="463" 
d="M313 0l-25 163h-121l-24 -163h-118l144 700h125l144 -700h-125zM188 264h80l-38 251h-3z" />
    <glyph glyph-name="N" unicode="N" horiz-adv-x="471" 
d="M298 700h125v-700h-125l-123 401h-2v-401h-125v700h132l116 -388h2v388z" />
    <glyph glyph-name="O" unicode="O" horiz-adv-x="454" 
d="M230 709c125 0 181 -84 181 -156v-404c0 -72 -56 -158 -181 -158c-138 0 -187 86 -187 158v404c0 72 49 156 187 156zM286 151v401c0 21 -20 59 -56 59c-44 0 -62 -38 -62 -57v-403c0 -23 18 -60 62 -60c36 0 56 39 56 60z" />
    <glyph glyph-name="T" unicode="T" horiz-adv-x="432" 
d="M407 700v-99h-129v-601h-125v601h-128v99h382z" />
    <glyph glyph-name="V" unicode="V" horiz-adv-x="499" 
d="M474 700l-161 -700h-133l-155 700h134l89 -518h2l91 518h133z" />
    <glyph glyph-name="a" unicode="a" horiz-adv-x="493" 
d="M351 0l-25 163h-121l-24 -163h-118l144 700h125l144 -700h-125zM226 263h80l-38 251h-3zM40 -19h122l-28 -28h-117l143 700l23 22zM334 -19h123l-28 -28h-125l-24 162h-63l4 28h90zM248 287l18 113l18 -120h-35z" />
    <glyph glyph-name="n" unicode="n" horiz-adv-x="501" 
d="M336 700h125v-700h-125l-123 400h-2v-400h-125v700h132l116 -389h2v389zM318 652v-225l-28 95v130h28zM68 652v-672h97v-28h-125v700h28zM230 282l92 -302h93v-28h-125l-60 195v135z" />
    <glyph glyph-name="o" unicode="o" horiz-adv-x="485" 
d="M269 709c125 0 181 -86 181 -157v-404c0 -71 -56 -157 -181 -157c-138 0 -187 86 -187 156v405c0 71 49 157 187 157zM325 150v402c0 21 -20 57 -56 57c-44 0 -62 -36 -62 -56v-403c0 -23 18 -59 62 -59c36 0 56 38 56 59zM63 147c0 -87 63 -176 206 -176
c29 0 55 5 79 12c-29 -24 -71 -40 -125 -40c-139 0 -188 86 -188 157v404c0 34 10 70 35 99c-4 -17 -7 -35 -7 -52v-404zM269 590c25 0 38 -27 38 -39v-402c0 -10 -10 -33 -28 -39v394c0 21 -19 54 -52 58c4 11 17 28 42 28z" />
    <glyph glyph-name="t" unicode="t" horiz-adv-x="446" 
d="M64 700h382v-100h-129v-600h-125v600h-128v100zM174 581v-600h96v-28h-125v600h-128v100h28v-72h129zM336 553v28h63v-28h-63z" />
    <glyph glyph-name="v" unicode="v" horiz-adv-x="530" 
d="M380 700h133l-161 -700h-133l-155 700h134l89 -518h2zM353 653l-64 -372l-11 58l55 314h20zM55 653l149 -672h108l-7 -28h-133l-155 700h38z" />
    <glyph glyph-name="zero.alt" unicode="&#xe000;" horiz-adv-x="487" 
d="M267 705c125 0 185 -86 185 -157v-402c0 -71 -60 -155 -185 -155s-186 84 -186 155v402c0 71 61 157 186 157zM326 388v159c0 21 -23 58 -59 58s-61 -37 -61 -58v-400c0 -21 25 -57 61 -57s59 36 59 57v241zM63 146c0 -84 71 -174 204 -174c30 0 57 5 81 13
c-30 -24 -73 -41 -128 -41c-125 0 -185 85 -185 156v402c0 31 11 65 35 93c-4 -16 -7 -31 -7 -47v-402zM267 587c25 0 41 -28 41 -40v-400c0 -9 -11 -28 -28 -36v390c0 20 -21 53 -52 57c5 13 19 29 39 29z" />
    <glyph glyph-name="one.alt" unicode="&#xe001;" horiz-adv-x="283" 
d="M118 700h125v-700h-125v599h-55v73zM100 582v-600h96v-29h-124v600h-55v72l28 14v-57h55z" />
    <glyph glyph-name="two.alt" unicode="&#xe002;" horiz-adv-x="499" 
d="M284 268c-55 -57 -63 -117 -63 -147c0 -12 1 -20 1 -20h227v-101h-355s-13 15 -13 89c0 90 47 178 96 235l125 144c29 33 37 55 37 87c0 31 -26 55 -57 55c-30 0 -56 -28 -56 -78v-28h-125v48c0 94 75 157 181 157s182 -62 182 -157s-26 -127 -93 -196zM179 486v-28h-125
v47c0 39 13 73 36 99c-5 -17 -8 -34 -8 -52v-66h97zM320 555c0 -26 -5 -42 -31 -74c2 8 2 17 2 27c0 27 -18 48 -43 53c7 19 18 30 34 30c21 0 38 -16 38 -36zM80 -12l6 -6h317v-29h-355s-13 15 -13 89c0 70 27 138 62 192c-20 -44 -34 -94 -34 -145c0 -73 13 -96 17 -101z
" />
    <glyph glyph-name="three.alt" unicode="&#xe003;" horiz-adv-x="477" 
d="M336 378c64 -28 116 -81 116 -178c0 -112 -79 -209 -198 -209c-126 0 -183 85 -183 157v54h126v-53c0 -21 20 -58 57 -58c49 0 70 53 70 109c0 76 -23 128 -103 128h-25v100h7c80 0 107 47 107 95c0 52 -24 86 -56 86c-37 0 -57 -37 -57 -58v-47h-126v48
c0 72 57 157 183 157c109 0 175 -67 175 -177c0 -70 -47 -135 -93 -154zM150 486v-28h-125v47c0 32 11 67 35 96c-6 -16 -7 -32 -7 -49v-66h97zM156 381c7 0 15 1 21 2v-74h44c60 0 84 -31 84 -109c0 -13 -2 -68 -32 -85c3 12 4 25 4 39c0 75 -22 127 -102 127h-26v100h7z
M291 523c0 -22 -5 -47 -29 -62c1 5 1 11 1 15c0 47 -18 79 -46 85c5 13 17 30 37 30c21 0 37 -29 37 -68zM53 148c0 -87 68 -175 201 -175c26 0 51 5 74 13c-32 -26 -73 -42 -121 -42c-126 0 -182 86 -182 158v54h28v-8z" />
    <glyph glyph-name="four.alt" unicode="&#xe004;" horiz-adv-x="526" 
d="M508 255l1 -93h-89v-162h-125v162h-213v99l213 439h125v-445h88zM295 255v244l-120 -244h120zM276 144v-163h97v-28h-125v163h-213v99l29 51v-122h212zM276 273h-28v89l28 58v-147zM439 144h22v-28h-22v28z" />
    <glyph glyph-name="five.alt" unicode="&#xe005;" horiz-adv-x="495" 
d="M280 500c85 0 180 -67 180 -176v-121c0 -112 -78 -207 -197 -207c-125 0 -182 85 -182 155v55h125v-54c0 -21 21 -57 57 -57c91 0 69 173 69 220c0 52 -37 85 -69 85c-25 0 -42 -17 -50 -35h-123v335h328v-99h-203v-125c11 15 49 24 65 24zM315 203c0 -13 -2 -67 -32 -85
c2 13 3 26 3 39c0 137 2 181 -59 196l2 4c2 6 13 25 34 25s51 -26 51 -67c0 -18 1 -73 1 -112zM63 151c0 -86 68 -174 200 -174c26 0 51 5 74 13c-32 -26 -73 -41 -121 -41c-125 0 -181 86 -181 156v55h28v-9zM191 347c-12 -7 -20 -17 -25 -29h-122v336h28v-307h119z
M371 555h-138v28h138v-28z" />
    <glyph glyph-name="six.alt" unicode="&#xe006;" horiz-adv-x="495" 
d="M291 426c114 0 169 -74 169 -155c0 -10 -1 -88 -1 -98c0 -108 -67 -182 -196 -182c-126 0 -182 85 -182 155v350c0 112 75 209 188 209c120 0 174 -86 174 -157v-47h-120v46c0 31 -20 58 -54 58c-48 0 -62 -53 -62 -109v-109c16 20 41 39 84 39zM332 173c0 9 1 88 1 98
c0 34 -30 54 -62 54c-40 0 -64 -17 -64 -35v-143c0 -21 20 -57 57 -57c48 0 68 27 68 83zM63 496v-350c0 -86 69 -174 200 -174c34 0 64 5 91 15c-33 -28 -78 -43 -138 -43c-125 0 -181 86 -181 156v350c0 52 15 99 43 136c-9 -27 -12 -58 -15 -90zM396 454h-119v47
c0 27 -15 52 -43 56c6 17 18 30 35 30c24 0 35 -20 35 -40v-65h92v-28zM271 307c21 0 44 -12 44 -36c0 -106 2 -149 -30 -160c-2 -9 2 71 2 113c0 35 -30 55 -62 55v11c1 4 14 17 46 17z" />
    <glyph glyph-name="seven.alt" unicode="&#xe007;" horiz-adv-x="445" 
d="M65 700h363v-98l-198 -602h-138l202 600h-229v100zM268 582l-202 -601h127l-9 -27h-138l202 600h-231v100h29v-72h222z" />
    <glyph glyph-name="eight.alt" unicode="&#xe008;" horiz-adv-x="519" 
d="M369 375c64 -27 115 -80 115 -177c0 -112 -78 -207 -197 -207c-123 0 -205 89 -205 207c0 97 52 150 116 177c-46 19 -93 84 -93 154c0 109 66 176 174 176c114 0 182 -62 182 -176c0 -70 -46 -135 -92 -154zM286 605c-39 0 -62 -36 -62 -85c0 -37 15 -73 59 -88
c43 15 60 51 60 88c0 50 -19 85 -57 85zM297 91c42 5 60 55 60 107c0 65 -17 114 -74 125c-57 -11 -73 -60 -73 -125c0 -55 19 -107 68 -108c7 0 13 1 19 1zM284 -28c27 0 53 4 77 13c-32 -26 -73 -41 -121 -41c-123 0 -205 91 -205 208c0 53 16 93 41 122
c-8 -22 -13 -48 -13 -76c0 -132 96 -226 221 -226zM122 348c-35 28 -63 79 -63 135c0 49 13 91 39 121c-7 -23 -12 -48 -12 -75c0 -64 35 -121 74 -153c-14 -8 -27 -18 -38 -28zM283 304c28 -6 56 -26 56 -106c0 -34 -10 -72 -32 -85c2 12 4 26 4 39c0 62 -17 109 -68 122
c10 19 25 26 40 30zM297 474c0 45 -17 79 -48 83c6 17 17 30 37 30c33 0 39 -42 39 -67c0 -20 -6 -45 -29 -61c0 5 1 9 1 15z" />
    <glyph glyph-name="nine.alt" unicode="&#xe009;" horiz-adv-x="497" 
d="M280 705c125 0 182 -86 182 -157v-350c0 -112 -76 -207 -189 -207c-119 0 -173 85 -173 155v55h120v-54c0 -29 19 -57 53 -57c48 0 62 53 62 108v111c-15 -21 -40 -39 -84 -39c-114 0 -169 72 -169 155c0 9 1 88 1 97c0 108 68 183 197 183zM335 529v18
c0 21 -20 58 -55 58c-77 0 -71 -56 -71 -180c0 -36 31 -56 62 -56c40 0 64 19 64 35v125zM82 146c0 -86 65 -174 191 -174c24 0 46 4 66 11c-30 -24 -68 -39 -112 -39c-120 0 -173 86 -173 156v55h28v-9zM205 223c-114 0 -169 73 -169 155c0 102 -4 167 41 218
c-16 -39 -13 -99 -13 -171c0 -87 57 -174 187 -174c11 0 22 2 33 4c-16 -17 -40 -32 -79 -32zM279 587c25 0 38 -28 38 -40v-143c0 -3 -8 -11 -28 -15v112c0 21 -19 57 -56 58c8 22 24 28 46 28zM317 268v-70c0 -29 -4 -76 -31 -88c2 13 3 28 3 42v105c10 3 20 6 28 11z" />
    <glyph glyph-name="C" unicode="C" horiz-adv-x="451" 
d="M416 497h-126v55c0 21 -21 57 -57 57c-44 0 -63 -36 -63 -57v-404c0 -21 19 -57 63 -57c36 0 57 36 57 57v55h126v-55c0 -71 -57 -157 -183 -157c-138 0 -190 86 -190 156v405c0 71 52 157 190 157c126 0 183 -86 183 -157v-55z" />
    <glyph glyph-name="D" unicode="D" horiz-adv-x="473" 
d="M420 584c6 -27 10 -55 10 -84v-300c0 -107 -48 -200 -156 -200h-226v700h226c71 0 130 -49 146 -116zM173 100h75c50 0 63 44 63 100v300c0 56 -13 100 -63 100h-75v-500z" />
    <glyph glyph-name="E" unicode="E" horiz-adv-x="389" 
d="M350 600h-177v-172h127v-100h-127v-228h191v-100h-316v700h302v-100z" />
    <glyph glyph-name="F" unicode="F" horiz-adv-x="374" 
d="M349 600h-176v-172h126v-100h-126v-328h-125v700h301v-100z" />
    <glyph glyph-name="G" unicode="G" horiz-adv-x="458" 
d="M415 497h-126v55c0 21 -21 57 -57 57c-44 0 -63 -36 -63 -57v-404c0 -21 19 -57 63 -57c47 0 71 33 71 90v107h-70v100h182v-216c0 -95 -57 -181 -183 -181c-139 0 -189 86 -189 156v405c0 71 50 157 189 157c126 0 183 -86 183 -157v-55z" />
    <glyph glyph-name="H" unicode="H" horiz-adv-x="478" 
d="M305 700h125v-700h-125v329h-132v-329h-125v700h125v-272h132v272z" />
    <glyph glyph-name="I" unicode="I" 
d="M173 700v-700h-125v700h125z" />
    <glyph glyph-name="J" unicode="J" horiz-adv-x="360" 
d="M5 35l63 74c14 -11 33 -18 54 -18c44 0 64 36 64 57v552h126v-553c0 -71 -51 -156 -190 -156c-53 0 -95 18 -117 44z" />
    <glyph glyph-name="L" unicode="L" horiz-adv-x="362" 
d="M173 100h164v-100h-289v700h125v-600z" />
    <glyph glyph-name="M" unicode="M" horiz-adv-x="596" 
d="M380 700h168v-700h-125v431l-82 -431h-86l-80 431h-2v-431h-125v700h169l80 -419h2z" />
    <glyph glyph-name="Q" unicode="Q" horiz-adv-x="455" 
d="M450 0h-101l-12 18c-27 -17 -62 -27 -106 -27c-137 0 -188 86 -188 156v405c0 71 51 157 188 157c125 0 181 -86 181 -157v-404c0 -22 -5 -45 -16 -67zM231 91c22 0 38 14 48 30l-40 68h48v363c0 21 -20 57 -56 57c-43 0 -63 -36 -63 -56v-403c0 -23 20 -59 63 -59z" />
    <glyph glyph-name="R" unicode="R" horiz-adv-x="473" 
d="M461 0h-130l-119 282h-40v-282h-124v700h209c120 0 177 -88 177 -200c0 -104 -45 -171 -105 -201zM172 600v-212h40c81 0 103 10 103 112c0 56 -13 100 -62 100h-81z" />
    <glyph glyph-name="S" unicode="S" horiz-adv-x="438" 
d="M399 504h-125v29c0 49 -26 76 -56 76c-32 0 -56 -23 -56 -55c0 -30 6 -53 35 -86l125 -143c50 -57 81 -95 81 -178c0 -101 -85 -157 -185 -157c-101 0 -182 57 -182 157v73h126v-65c0 -43 24 -64 56 -64c31 0 56 23 56 64c0 37 -15 65 -41 95l-104 107
c-66 78 -94 100 -94 196c0 95 76 156 183 156c106 0 181 -63 181 -156v-49z" />
    <glyph glyph-name="U" unicode="U" horiz-adv-x="465" 
d="M292 700h125v-553c0 -71 -56 -156 -181 -156c-137 0 -188 85 -188 156v553h125v-552c0 -21 19 -57 63 -57c36 0 56 36 56 57v552z" />
    <glyph glyph-name="W" unicode="W" horiz-adv-x="743" 
d="M602 700h116l-141 -700h-122l-83 413l-83 -413h-122l-142 700h123l81 -519h3l82 519h122l81 -519h3z" />
    <glyph glyph-name="X" unicode="X" horiz-adv-x="487" 
d="M462 700l-153 -350l153 -350h-120l-102 231l-94 -231h-121l154 350l-154 350h121l101 -232l95 232h120z" />
    <glyph glyph-name="Y" unicode="Y" horiz-adv-x="463" 
d="M292 272v-272h-121v272l-146 428h122l85 -338h2l81 338h123z" />
    <glyph glyph-name="Z" unicode="Z" horiz-adv-x="467" 
d="M432 700l-1 -107l-268 -493h254v-100h-382v125l255 475h-232v100h374z" />
    <glyph glyph-name="b" unicode="b" horiz-adv-x="476" 
d="M352 378c64 -28 107 -81 107 -178c0 -112 -66 -200 -187 -200h-185v700h162c116 0 182 -65 182 -178c0 -59 -30 -123 -79 -144zM212 599v-165h6c88 0 103 17 103 83c0 51 -17 82 -63 82h-46zM254 101c50 0 86 43 86 99c0 76 -23 128 -103 128h-25v-227h42zM212 -20h60
c27 0 51 5 73 13c-31 -26 -70 -41 -119 -41h-186v700l28 28v-700h144zM237 309c60 0 84 -32 84 -110c0 -30 -11 -55 -30 -69c1 7 2 14 2 23c0 60 -15 106 -63 121v35h7zM274 457v14c0 43 -13 72 -44 79v30h28c35 0 45 -22 45 -61c0 -34 -1 -55 -29 -62z" />
    <glyph glyph-name="c" unicode="c" horiz-adv-x="469" 
d="M454 552v-54h-126v53c0 21 -21 58 -57 58c-44 0 -62 -37 -62 -58v-402c0 -21 18 -58 62 -58c36 0 57 37 57 58v53h126v-54c0 -72 -57 -157 -183 -157c-139 0 -189 85 -189 157v404c0 72 50 157 189 157c126 0 183 -85 183 -157zM63 147c0 -87 64 -176 208 -176
c30 0 57 5 79 13c-29 -24 -71 -41 -126 -41c-139 0 -189 86 -189 158v403c0 33 11 68 37 97c-6 -16 -9 -33 -9 -50v-404zM281 110v45l28 28v-35c0 -10 -9 -31 -28 -38zM435 478l-28 -28h-126v53c0 21 -18 55 -52 58c5 12 17 28 42 28s38 -27 38 -39v-72h126z" />
    <glyph glyph-name="d" unicode="d" horiz-adv-x="502" 
d="M458 583c6 -26 9 -55 9 -83v-300c0 -107 -47 -200 -155 -200h-225v700h225c71 0 130 -49 146 -117zM349 200v300c0 56 -12 99 -63 99h-74v-498h74c51 0 63 43 63 99zM212 -19h100c17 0 34 3 50 8c-26 -23 -60 -37 -97 -37h-225v700h28v-671h144zM286 581
c24 0 44 -11 44 -82v-300c0 -56 -13 -74 -30 -80c1 11 2 22 2 34v299c0 57 -12 100 -62 100h-10v29h56z" />
    <glyph glyph-name="e" unicode="e" horiz-adv-x="403" 
d="M212 101h191v-101h-316v700h302v-101h-177v-171h126v-100h-126v-227zM68 652v-671h288v-29h-316v700h28zM292 281h-62v28h62v-28zM342 552h-112v29h112v-29z" />
    <glyph glyph-name="f" unicode="f" horiz-adv-x="387" 
d="M211 700h176v-101h-176v-171h126v-100h-126v-328h-125v700h125zM229 281v28h61v-28h-61zM68 652v-671h96v-29h-124v700h28zM229 552v29h112v-29h-112z" />
    <glyph glyph-name="g" unicode="g" horiz-adv-x="488" 
d="M453 552v-54h-126v53c0 21 -20 58 -56 58c-44 0 -64 -37 -64 -58v-402c0 -21 20 -58 64 -58c46 0 70 34 70 91v106h-70v100h182v-216c0 -94 -57 -181 -182 -181c-139 0 -190 85 -190 157v404c0 72 51 157 190 157c125 0 182 -85 182 -157zM407 450h-126v53
c0 21 -20 55 -53 58c4 12 17 29 43 29c25 0 38 -28 38 -40v-72h98v-28zM63 147c0 -87 64 -175 208 -175c28 0 54 4 75 11c-29 -24 -70 -40 -122 -40c-139 0 -189 86 -189 158v403c0 33 10 69 35 98c-4 -17 -7 -34 -7 -51v-404zM293 113c1 6 2 14 2 21v106h-69v100h27v-72h70
v-87c0 -37 -10 -59 -30 -68z" />
    <glyph glyph-name="h" unicode="h" horiz-adv-x="508" 
d="M343 700h125v-700h-125v328h-132v-328h-125v700h125v-272h132v272zM68 652v-672h97v-28h-125v700h28zM324 652v-206h-28v206h28zM324 309v-329h97v-28h-125v329h-66v28h94z" />
    <glyph glyph-name="i" unicode="i" horiz-adv-x="251" 
d="M86 700h125v-700h-125v700zM68 652v-671h97v-29h-125v700h28z" />
    <glyph glyph-name="j" unicode="j" horiz-adv-x="390" 
d="M224 700h126v-552c0 -72 -51 -157 -189 -157c-54 0 -96 19 -117 45l62 74c14 -11 33 -19 55 -19c43 0 63 37 63 58v551zM205 148c0 -8 -7 -29 -28 -36v540h28v-504zM161 -28c34 0 64 5 89 14c-30 -25 -75 -43 -136 -43c-53 0 -95 20 -117 45l31 37l1 -2
c28 -32 77 -51 132 -51z" />
    <glyph glyph-name="k" unicode="k" horiz-adv-x="497" 
d="M493 0h-144l-128 268h-6l-4 -5v-263h-125v700h125v-250h3l122 250h119l-168 -312zM337 -20h94l15 -28h-143l-73 152v102zM68 652v-672h97v-28h-125v700h28z" />
    <glyph glyph-name="l" unicode="l" horiz-adv-x="392" 
d="M211 100h164v-100h-289v700h125v-600zM68 652v-672h260v-28h-288v700h28z" />
    <glyph glyph-name="m" unicode="m" horiz-adv-x="626" 
d="M418 700h168v-700h-125v432l-81 -432h-87l-79 432h-2v-432h-125v700h169l80 -419h2zM69 652v-672h96v-28h-125v700h29zM390 652l-53 -280l-10 50l44 230h19zM443 238v-258h97v-28h-125v132zM230 238l48 -258h61l-5 -28h-88l-16 87v199z" />
    <glyph glyph-name="p" unicode="p" horiz-adv-x="479" 
d="M282 700c120 0 177 -88 177 -200c0 -145 -88 -219 -180 -219c-8 0 -59 0 -67 1v-282h-125v700h195zM237 388c80 0 103 9 103 112c0 56 -13 99 -62 99h-66v-211h25zM68 652v-671h97v-29h-125v700h28zM278 581c22 0 43 -11 43 -82c0 -61 -6 -82 -30 -89c2 11 2 25 2 42
c0 56 -12 100 -62 100l-1 29h48zM230 262c67 0 72 -1 110 10c-32 -26 -70 -38 -110 -38v28z" />
    <glyph glyph-name="q" unicode="q" horiz-adv-x="485" 
d="M269 -9c-137 0 -187 85 -187 157v404c0 72 50 157 187 157c125 0 181 -85 181 -157v-404c0 -21 -5 -45 -16 -66l54 -82h-102l-11 19c-27 -17 -62 -28 -106 -28zM207 553v-402c0 -23 18 -60 62 -60c22 0 38 14 48 30l-39 68h47v363c0 21 -20 58 -56 58
c-44 0 -62 -37 -62 -57zM278 503c0 21 -18 55 -51 58c5 12 17 29 42 29s37 -28 37 -40v-343h-28v296zM247 115l-16 27h47v7l16 -28c-5 -6 -14 -13 -25 -13c-9 0 -17 3 -22 7zM375 -20h48l19 -28h-103l-10 19c-27 -17 -63 -28 -106 -28c-137 0 -188 86 -188 158v403
c0 33 11 69 37 99c-6 -18 -9 -34 -9 -52v-404c0 -87 64 -175 206 -175c37 0 70 7 99 21z" />
    <glyph glyph-name="r" unicode="r" horiz-adv-x="504" 
d="M370 0l-119 281c-18 0 -34 1 -39 1v-282h-125v700h209c120 0 177 -88 177 -200c0 -104 -45 -171 -105 -201l132 -299h-130zM212 388h39c80 0 103 9 103 112c0 56 -13 99 -62 99h-80v-211zM68 652v-671h97v-29h-125v700h28zM292 581c22 0 43 -11 43 -82
c0 -61 -6 -82 -30 -89c2 11 2 25 2 42c0 56 -12 100 -62 100h-15v29h62zM358 -20h83l12 -28h-129l-94 220v90h9z" />
    <glyph glyph-name="s" unicode="s" horiz-adv-x="485" 
d="M369 324c50 -56 81 -94 81 -176c0 -101 -86 -157 -186 -157s-181 56 -181 157v73h124v-66c0 -42 26 -64 57 -64s56 24 56 64c0 38 -12 68 -40 96l-105 105c-72 72 -93 101 -93 196s76 157 182 157s181 -63 181 -157v-48h-125v28c0 50 -26 78 -56 78
c-31 0 -57 -24 -57 -55c0 -32 8 -54 37 -87zM65 147c0 -105 80 -176 199 -176c31 0 60 5 86 14c-34 -27 -81 -42 -132 -42c-101 0 -182 56 -182 158v72h29v-26zM198 239l-70 70c-72 72 -93 100 -93 195c0 39 13 73 35 99c-4 -16 -7 -33 -7 -52c0 -100 27 -137 99 -209
l103 -104c28 -29 37 -54 37 -84c0 -24 -11 -40 -28 -44c-1 36 -15 63 -40 93l-8 7v29h-28zM277 457l-3 3v25c0 44 -21 71 -47 76c4 17 19 29 37 29c23 0 38 -23 38 -59v-46h97v-28h-122z" />
    <glyph glyph-name="u" unicode="u" horiz-adv-x="495" 
d="M330 700h125v-553c0 -70 -56 -156 -181 -156c-138 0 -187 86 -187 156v553h125v-552c0 -20 18 -57 62 -57c36 0 56 37 56 57v552zM312 147c0 -10 -10 -31 -28 -37v542h28v-505zM68 652v-505c0 -87 63 -176 206 -176c30 0 56 5 79 13c-29 -24 -71 -41 -125 -41
c-139 0 -188 85 -188 157v552h28z" />
    <glyph glyph-name="w" unicode="w" horiz-adv-x="775" 
d="M642 700h116l-141 -700h-123l-83 413l-83 -413h-123l-141 700h123l81 -518h2l83 518h123l81 -518h3zM616 652l-58 -361l-10 66l47 295h21zM327 652l-58 -361l-10 66l48 295h20zM411 318l67 -338h98l-6 -28h-122l-55 274zM55 652l135 -672h97l-5 -28h-124l-141 700h38z
" />
    <glyph glyph-name="x" unicode="x" horiz-adv-x="517" 
d="M500 700l-154 -350l154 -350h-120l-102 231l-94 -231h-120l153 350l-153 350h120l102 -232l94 232h120zM368 -20h73l13 -28h-121l-76 176l22 55zM197 349l-161 -369h113l-12 -28h-120l153 350l-153 350h47z" />
    <glyph glyph-name="y" unicode="y" horiz-adv-x="493" 
d="M353 700h123l-147 -428v-272h-120v272l-146 428h123l85 -337zM323 652l-52 -216l-9 33l44 183h17zM190 268v-288h93v-28h-121v272l-145 428h43z" />
    <glyph glyph-name="z" unicode="z" horiz-adv-x="476" 
d="M459 700v-106l-268 -494h254v-100h-381v126l254 474h-231v100h372zM273 553h-233v99h28v-71h220zM45 130v-150h354v-28h-382v126z" />
    <glyph glyph-name="exclam" unicode="!" 
d="M48 700h125v-497h-125v497zM48 0v125h125v-125h-125z" />
    <glyph glyph-name="numbersign" unicode="#" horiz-adv-x="725" 
d="M675 388h-201l-18 -168h202l-3 -19h-200l-22 -201h-19l22 201h-168l-21 -201h-19l22 201h-202l2 19h201l18 168h-201l2 18h201l21 202h19l-21 -202h167l22 202h18l-21 -202h201zM438 220l18 168h-168l-18 -168h168z" />
    <glyph glyph-name="dollar" unicode="$" horiz-adv-x="455" 
d="M412 147c0 -98 -82 -154 -180 -156v-46h-19v46c-94 4 -169 59 -169 156v73h125v-65c0 -37 19 -58 44 -64v187l-76 79c-66 78 -94 100 -94 196c0 91 70 152 170 156v46h19v-46c103 -2 175 -65 175 -156v-49h-125v29c0 46 -22 73 -50 76v-171l99 -113
c49 -57 80 -94 81 -178zM206 468l7 -9v150c-25 -6 -44 -28 -44 -55c0 -31 8 -52 37 -86zM232 91c29 3 50 26 50 64c0 37 -15 65 -41 95l-9 9v-168z" />
    <glyph glyph-name="percent" unicode="%" horiz-adv-x="746" 
d="M573 278c89 0 130 -61 130 -113v-62c0 -52 -41 -112 -130 -112c-98 0 -134 60 -134 112v63c0 51 36 112 134 112zM613 105v60c0 16 -14 42 -40 42c-31 0 -45 -26 -45 -40v-62c0 -17 14 -43 45 -43c26 0 40 28 40 43zM607 700h23l-489 -700h-24zM177 709
c89 0 130 -61 130 -113v-62c0 -52 -41 -112 -130 -112c-98 0 -134 60 -134 112v63c0 51 36 112 134 112zM217 536v60c0 16 -14 42 -40 42c-31 0 -45 -26 -45 -40v-62c0 -17 14 -43 45 -43c26 0 40 28 40 43z" />
    <glyph glyph-name="ampersand" unicode="&#x26;" horiz-adv-x="553" 
d="M528 0h-286c-120 0 -199 97 -199 210c0 97 51 150 116 178c-46 18 -92 79 -92 149c0 110 66 172 175 172c1 0 3 -1 3 -1c1 0 2 1 4 1c109 0 175 -62 175 -172c0 -91 -83 -148 -150 -187l104 -141c-6 19 -10 39 -10 59c0 28 8 55 29 76l3 3h122v-19h-113
c-16 -17 -22 -38 -22 -61c0 -51 32 -110 54 -144l86 -117zM247 609c-38 0 -61 -31 -61 -81c0 -37 18 -76 47 -113c45 15 72 76 72 113c0 51 -19 81 -58 81zM172 210c0 -56 20 -109 70 -109h192c-3 3 -6 8 -10 14l-166 226c-55 -28 -86 -66 -86 -131z" />
    <glyph glyph-name="parenleft" unicode="(" horiz-adv-x="253" 
d="M122 708h83c-50 -119 -74 -246 -74 -372c0 -127 24 -253 74 -372h-83c-50 119 -74 245 -74 372c0 126 24 253 74 372z" />
    <glyph glyph-name="parenright" unicode=")" horiz-adv-x="251" 
d="M48 708h82c49 -119 73 -246 73 -372c0 -127 -24 -253 -73 -372h-82c49 119 73 245 73 372c0 126 -24 253 -73 372z" />
    <glyph glyph-name="asterisk" unicode="*" horiz-adv-x="308" 
d="M265 538l-97 -57l65 -92l-15 -11l-64 90l-63 -90l-16 11l66 92l-98 57l9 16l93 -53v107h19v-107l92 53z" />
    <glyph glyph-name="plus" unicode="+" horiz-adv-x="526" 
d="M478 223v-19h-206v-204h-19v204h-205v19h205v205h19v-205h206z" />
    <glyph glyph-name="comma" unicode="," 
d="M48 125h125v-128l-66 -52h-29l68 55h-98v125z" />
    <glyph glyph-name="hyphen" unicode="-" horiz-adv-x="339" 
d="M291 223v-19h-243v19h243z" />
    <glyph glyph-name="period" unicode="." 
d="M48 0v125h125v-125h-125z" />
    <glyph glyph-name="colon" unicode=":" 
d="M48 0v125h125v-125h-125zM48 388h125v-125h-125v125z" />
    <glyph glyph-name="semicolon" unicode=";" 
d="M48 388h125v-125h-125v125zM48 0v125h125v-128l-66 -52h-29l68 55h-98z" />
    <glyph glyph-name="equal" unicode="=" horiz-adv-x="526" 
d="M48 134v19h430v-19h-430zM48 293h430v-19h-430v19z" />
    <glyph glyph-name="question" unicode="?" horiz-adv-x="450" 
d="M162 0v125h125v-125h-125zM224 712c107 0 183 -62 183 -158c0 -131 -120 -143 -120 -258v-93h-125v69c0 166 119 204 119 285c0 32 -25 55 -57 55c-30 0 -56 -28 -56 -77v-28h-125v47c0 95 75 158 181 158z" />
    <glyph glyph-name="at" unicode="@" horiz-adv-x="756" 
d="M699 376c-30 -78 -108 -122 -207 -123l26 -129h-81l-21 129h-69l-21 -129h-78l94 457h82l64 -310c120 1 207 69 207 179c0 137 -148 241 -298 241c-188 0 -335 -150 -335 -341s147 -341 335 -341c101 0 192 43 255 116h24c-66 -84 -168 -133 -279 -133
c-198 0 -354 157 -354 358s156 358 354 358c161 0 316 -110 316 -258c0 -25 -5 -50 -14 -74zM350 270h62l-29 190h-2z" />
    <glyph glyph-name="bracketleft" unicode="[" horiz-adv-x="256" 
d="M208 681h-82v-662h82v-19h-160v700h160v-19z" />
    <glyph glyph-name="bracketright" unicode="]" horiz-adv-x="257" 
d="M130 681h-82v19h161v-700h-161v19h82v662z" />
    <glyph glyph-name="underscore" unicode="_" horiz-adv-x="420" 
d="M425 -57v-19h-430v19h430z" />
    <glyph glyph-name="Euro" unicode="&#x20ac;" horiz-adv-x="479" 
d="M436 497h-126v55c0 21 -20 57 -57 57c-44 0 -62 -36 -62 -57v-142h117v-19h-117v-82h117v-19h-117v-142c0 -21 18 -57 62 -57c37 0 57 36 57 57v55h126v-55c0 -71 -57 -157 -183 -157c-139 0 -189 86 -189 157v142h-21v19h21v82h-21v19h21v142c0 71 50 157 189 157
c126 0 183 -86 183 -157v-55z" />
    <glyph glyph-name="quoteleft" unicode="&#x2018;" 
d="M173 575h-125v128l66 53h29l-69 -56h99v-125z" />
    <glyph glyph-name="quoteright" unicode="&#x2019;" 
d="M48 700h125v-128l-66 -53h-29l69 56h-99v125z" />
    <glyph glyph-name="quotedblleft" unicode="&#x201c;" horiz-adv-x="393" 
d="M345 700v-125h-125v128l65 53h30l-69 -56h99zM173 575h-125v128l65 53h30l-69 -56h99v-125z" />
    <glyph glyph-name="quotedblright" unicode="&#x201d;" horiz-adv-x="393" 
d="M48 575v125h125v-128l-65 -53h-30l69 56h-99zM220 700h125v-128l-65 -53h-30l69 56h-99v125z" />
    <glyph glyph-name="endash" unicode="&#x2013;" horiz-adv-x="339" 
d="M291 223v-19h-243v19h243z" />
    <glyph glyph-name="emdash" unicode="&#x2014;" horiz-adv-x="526" 
d="M478 223v-19h-430v19h430z" />
    <glyph glyph-name="sterling" unicode="&#xa3;" horiz-adv-x="478" 
d="M171 100h264v-100h-392v100c29 0 22 98 22 279h-22v19h22v155c0 95 77 157 183 157s181 -64 181 -157v-49h-125v29c0 49 -25 76 -56 76s-56 -23 -56 -55v-156h109v-19h-109v-176c0 -26 -7 -103 -21 -103z" />
    <glyph glyph-name="yen" unicode="&#xa5;" horiz-adv-x="447" 
d="M284 273h119v-19h-119v-81h119v-19h-119v-154h-120v154h-120v19h120v81h-120v19h120l-147 427h123l84 -337h2l81 337h123z" />
    <glyph glyph-name="K" unicode="K" horiz-adv-x="466" 
d="M310 0l-128 269h-6l-3 -7v-262h-125v700h125v-250h2l123 250h118l-169 -313l207 -387h-144z" />
    <glyph glyph-name="P" unicode="P" horiz-adv-x="444" 
d="M419 500c0 -145 -86 -219 -180 -219c-8 0 -59 1 -67 1v-282h-124v700h195c119 0 176 -88 176 -200zM172 388h25c81 0 104 10 104 112c0 56 -13 100 -63 100h-66v-212z" />
    <glyph glyph-name="B" unicode="B" horiz-adv-x="445" 
d="M313 378c65 -28 107 -81 107 -178c0 -113 -66 -200 -186 -200h-186v700h162c116 0 182 -65 182 -176c0 -59 -27 -125 -79 -146zM173 600v-166h6c89 0 104 19 104 86c0 50 -19 80 -63 80h-47zM173 100h42c50 0 86 44 86 100c0 75 -23 128 -103 128h-25v-228z" />
    <glyph glyph-name="one" unicode="1" horiz-adv-x="254" 
d="M25 672l56 28h125v-700h-125v600h-56v72z" />
    <glyph glyph-name="zero" unicode="0" horiz-adv-x="459" 
d="M230 709c126 0 186 -86 186 -157v-405c0 -71 -60 -156 -186 -156s-187 85 -187 156v405c0 71 61 157 187 157zM290 148v403c0 21 -24 58 -60 58c-37 0 -61 -37 -61 -58v-403c0 -21 24 -57 61 -57c36 0 60 36 60 57z" />
    </font>
</defs>
</svg>
