<?xml version="1.0" encoding="UTF-8" standalone="no"?>
<svg
   xmlns:dc="http://purl.org/dc/elements/1.1/"
   xmlns:cc="http://creativecommons.org/ns#"
   xmlns:rdf="http://www.w3.org/1999/02/22-rdf-syntax-ns#"
   xmlns:svg="http://www.w3.org/2000/svg"
   xmlns="http://www.w3.org/2000/svg"
   xmlns:sodipodi="http://sodipodi.sourceforge.net/DTD/sodipodi-0.dtd"
   xmlns:inkscape="http://www.inkscape.org/namespaces/inkscape"
   viewBox="0 0 162.129 31.813"
   version="1.1"
   id="svg1104"
   sodipodi:docname="logo.svg"
   width="162.129"
   height="31.813"
   inkscape:version="0.92.2 (5c3e80d, 2017-08-06)">
  <metadata
     id="metadata1110">
    <rdf:RDF>
      <cc:Work
         rdf:about="">
        <dc:format>image/svg+xml</dc:format>
        <dc:type
           rdf:resource="http://purl.org/dc/dcmitype/StillImage" />
        <dc:title></dc:title>
      </cc:Work>
    </rdf:RDF>
  </metadata>
  <defs
     id="defs1108" />
  <sodipodi:namedview
     pagecolor="#ffffff"
     bordercolor="#666666"
     borderopacity="1"
     objecttolerance="10"
     gridtolerance="10"
     guidetolerance="10"
     inkscape:pageopacity="0"
     inkscape:pageshadow="2"
     inkscape:window-width="2560"
     inkscape:window-height="1388"
     id="namedview1106"
     showgrid="false"
     inkscape:zoom="2.438"
     inkscape:cx="205.075"
     inkscape:cy="-57.156"
     inkscape:window-x="1912"
     inkscape:window-y="130"
     inkscape:window-maximized="1"
     inkscape:current-layer="svg1104" />
  <path
     d="m 1.91,8.259 h 4.72 c 1.967,0 3.633,0.703 5,2.11 1.367,1.407 2.05,3.2 2.05,5.38 v 2.08 c 0,2.187 -0.683,3.983 -2.05,5.39 -1.367,1.4 -3.033,2.1 -5,2.1 H 0 v -0.63 H 1.91 V 8.889 H 0 v -0.63 z m 4.72,0.63 H 2.55 v 15.8 h 4.08 c 1.78,0 3.293,-0.65 4.54,-1.95 1.253,-1.293 1.88,-2.93 1.88,-4.91 v -2.12 c 0,-1.953 -0.627,-3.577 -1.88,-4.87 -1.247,-1.3 -2.76,-1.95 -4.54,-1.95 z m 9.822,16.43 v -0.63 h 1.91 v -11.42 h -1.91 v -0.63 h 2.55 v 12.05 h 1.91 v 0.63 z m 2.55,-18.28 v 1.62 h -0.64 v -1.62 z m 13.526,7.09 v 2.37 h -0.63 v -2.06 c -0.407,-0.447 -0.923,-0.793 -1.55,-1.04 -0.627,-0.24 -1.357,-0.36 -2.19,-0.36 -1.187,0 -2.083,0.257 -2.69,0.77 -0.613,0.507 -0.92,1.097 -0.92,1.77 0,0.667 0.26,1.233 0.78,1.7 0.513,0.467 1.537,0.877 3.07,1.23 1.413,0.327 2.483,0.773 3.21,1.34 0.733,0.567 1.1,1.36 1.1,2.38 0,0.987 -0.407,1.79 -1.22,2.41 -0.813,0.62 -1.89,0.93 -3.23,0.93 -0.927,0 -1.777,-0.15 -2.55,-0.45 -0.78,-0.293 -1.43,-0.703 -1.95,-1.23 v -2.26 h 0.63 v 1.91 c 0.46,0.493 1.03,0.85 1.71,1.07 0.68,0.213 1.4,0.32 2.16,0.32 1.167,0 2.097,-0.273 2.79,-0.82 0.687,-0.547 1.03,-1.18 1.03,-1.9 0,-0.667 -0.287,-1.277 -0.86,-1.83 -0.58,-0.553 -1.583,-0.983 -3.01,-1.29 -1.493,-0.313 -2.58,-0.73 -3.26,-1.25 -0.687,-0.52 -1.03,-1.263 -1.03,-2.23 0,-0.907 0.383,-1.667 1.15,-2.28 0.767,-0.613 1.797,-0.92 3.09,-0.92 0.907,0 1.747,0.153 2.52,0.46 0.767,0.313 1.383,0.733 1.85,1.26 z m 8.244,10.8 c 1.067,0 2.01,-0.293 2.83,-0.88 0.82,-0.58 1.23,-1.457 1.23,-2.63 h 0.54 l 0.03,0.07 c 0.027,1.24 -0.43,2.23 -1.37,2.97 -0.94,0.74 -2.027,1.11 -3.26,1.11 -1.62,0 -2.887,-0.583 -3.8,-1.75 -0.92,-1.167 -1.38,-2.697 -1.38,-4.59 v -0.5 c 0,-1.887 0.457,-3.413 1.37,-4.58 0.913,-1.16 2.177,-1.74 3.79,-1.74 0.947,0 1.827,0.197 2.64,0.59 0.813,0.393 1.467,0.927 1.96,1.6 v 2.72 h -0.63 v -2.49 c -0.447,-0.547 -1.007,-0.98 -1.68,-1.3 -0.68,-0.327 -1.443,-0.49 -2.29,-0.49 -1.487,0 -2.613,0.53 -3.38,1.59 -0.767,1.067 -1.15,2.433 -1.15,4.1 v 0.5 c 0,1.687 0.383,3.06 1.15,4.12 0.767,1.053 1.9,1.58 3.4,1.58 z m 7.546,-5.7 v -0.5 c 0,-1.86 0.513,-3.377 1.54,-4.55 1.027,-1.18 2.36,-1.77 4,-1.77 1.647,0 2.987,0.59 4.02,1.77 1.027,1.173 1.54,2.69 1.54,4.55 v 0.5 c 0,1.867 -0.513,3.39 -1.54,4.57 -1.033,1.18 -2.363,1.77 -3.99,1.77 -1.653,0 -2.993,-0.59 -4.02,-1.77 -1.033,-1.18 -1.55,-2.703 -1.55,-4.57 z m 0.63,-0.5 v 0.5 c 0,1.593 0.447,2.943 1.34,4.05 0.887,1.1 2.087,1.65 3.6,1.65 1.48,0 2.667,-0.553 3.56,-1.66 0.887,-1.107 1.33,-2.453 1.33,-4.04 v -0.5 c 0,-1.553 -0.447,-2.89 -1.34,-4.01 -0.9,-1.12 -2.093,-1.68 -3.58,-1.68 -1.493,0 -2.683,0.56 -3.57,1.68 -0.893,1.12 -1.34,2.457 -1.34,4.01 z m 15.849,-6.09 v 0.63 h -1.67 l 3.67,9.37 0.6,1.71 h 0.07 l 0.61,-1.71 3.65,-9.37 h -1.66 v -0.63 h 3.73 v 0.63 h -1.39 l -4.68,12.04 0.01,0.01 h -0.61 l -4.68,-12.05 h -1.38 v -0.63 z m 15.79,12.93 c -1.447,0 -2.694,-0.587 -3.74,-1.76 -1.054,-1.167 -1.58,-2.617 -1.58,-4.35 v -0.75 c 0,-1.82 0.51,-3.327 1.53,-4.52 1.013,-1.187 2.266,-1.78 3.76,-1.78 1.426,0 2.593,0.467 3.5,1.4 0.9,0.94 1.35,2.2 1.35,3.78 v 0.97 h -9.5 v 0.15 0.75 c 0,1.533 0.446,2.83 1.34,3.89 0.9,1.053 2.013,1.58 3.34,1.58 0.946,0 1.74,-0.127 2.38,-0.38 0.633,-0.26 1.176,-0.647 1.63,-1.16 l 0.34,0.49 c -0.5,0.553 -1.107,0.973 -1.82,1.26 -0.714,0.287 -1.557,0.43 -2.53,0.43 z m -0.03,-12.53 c -1.26,0 -2.307,0.46 -3.14,1.38 -0.84,0.913 -1.314,2.06 -1.42,3.44 l 0.03,0.07 h 8.75 v -0.39 c 0,-1.287 -0.394,-2.36 -1.18,-3.22 -0.78,-0.853 -1.794,-1.28 -3.04,-1.28 z m 9.287,-0.4 h 0.52 l 0.12,2.2 v 0.44 c 0.346,-0.907 0.87,-1.613 1.57,-2.12 0.693,-0.5 1.546,-0.75 2.56,-0.75 0.18,0 0.346,0.013 0.5,0.04 0.153,0.027 0.283,0.053 0.39,0.08 l -0.07,0.57 -0.82,-0.07 c -1.134,0 -2.054,0.363 -2.76,1.09 -0.707,0.733 -1.164,1.697 -1.37,2.89 v 7.68 h 1.91 v 0.63 h -4.46 v -0.63 h 1.91 v -11.42 h -1.91 v -0.63 z"
     style="white-space:pre;fill:#ffffff"
     id="path1100"
     inkscape:connector-curvature="0" />
  <path
     d="m 102.697,0 h 59.432 v 31.813 h -59.432 z m 7.772,25.321 c 0.367,0.34 0.827,0.51 1.38,0.51 0.547,0 1.007,-0.167 1.38,-0.5 0.367,-0.333 0.55,-0.773 0.55,-1.32 0,-0.54 -0.183,-0.98 -0.55,-1.32 -0.367,-0.34 -0.827,-0.51 -1.38,-0.51 -0.573,0 -1.037,0.173 -1.39,0.52 -0.353,0.347 -0.53,0.783 -0.53,1.31 0,0.54 0.18,0.977 0.54,1.31 z m 14.834,-16.68 v 11.2 l -5.05,-11.2 h -3.45 v 17.06 h 3.45 v -11.19 l 5.04,11.19 h 3.44 V 8.641 Z m 9.645,6.9 v -4.03 h 6.32 v -2.87 h -9.77 v 17.06 h 9.8 v -2.86 h -6.35 v -4.52 h 5.36 v -2.78 z m 7.791,-6.9 v 2.87 h 4.15 v 14.19 h 3.45 v -14.19 h 4.22 v -2.87 z"
     id="path1102"
     inkscape:connector-curvature="0"
     style="fill:#ffffff" />
</svg>
