<?xml version="1.0" encoding="UTF-8" standalone="no"?>
<svg
   xmlns:dc="http://purl.org/dc/elements/1.1/"
   xmlns:cc="http://creativecommons.org/ns#"
   xmlns:rdf="http://www.w3.org/1999/02/22-rdf-syntax-ns#"
   xmlns:svg="http://www.w3.org/2000/svg"
   xmlns="http://www.w3.org/2000/svg"
   height="33.742001"
   width="174.783"
   id="svg835"
   version="1.1">
  <metadata
     id="metadata841">
    <rdf:RDF>
      <cc:Work
         rdf:about="">
        <dc:format>image/svg+xml</dc:format>
        <dc:type
           rdf:resource="http://purl.org/dc/dcmitype/StillImage" />
        <dc:title></dc:title>
      </cc:Work>
    </rdf:RDF>
  </metadata>
  <defs
     id="defs839" />
  <g
     transform="translate(-74.066,-113.109)"
     id="g833"
     viewBox="0 0 500 500">
    <path
       id="path829"
       style="white-space:pre;fill:#ffffff"
       d="m 75.976,121.36 h 4.72 c 1.967,0 3.633,0.703 5,2.11 1.367,1.407 2.05,3.2 2.05,5.38 v 2.08 c 0,2.187 -0.683,3.983 -2.05,5.39 -1.367,1.4 -3.033,2.1 -5,2.1 h -6.63 v -0.63 h 1.91 v -15.8 h -1.91 v -0.63 z m 4.72,0.63 h -4.08 v 15.8 h 4.08 c 1.78,0 3.293,-0.65 4.54,-1.95 1.253,-1.293 1.88,-2.93 1.88,-4.91 v -2.12 c 0,-1.953 -0.627,-3.577 -1.88,-4.87 -1.247,-1.3 -2.76,-1.95 -4.54,-1.95 z m 11.972,0 h -1.91 v -0.63 h 4.45 v 0.63 h -1.91 v 15.8 h 1.91 v 0.63 h -4.45 v -0.63 h 1.91 z m 16.437,1.77 v 2.68 h -0.63 v -2.39 c -0.5,-0.753 -1.17,-1.327 -2.01,-1.72 -0.84,-0.393 -1.833,-0.59 -2.98,-0.59 -1.546,0 -2.773,0.347 -3.68,1.04 -0.9,0.693 -1.35,1.523 -1.35,2.49 0,0.967 0.374,1.773 1.12,2.42 0.747,0.64 2.097,1.21 4.05,1.71 1.887,0.5 3.314,1.11 4.28,1.83 0.967,0.72 1.45,1.747 1.45,3.08 0,1.347 -0.553,2.41 -1.66,3.19 -1.1,0.78 -2.476,1.17 -4.13,1.17 -1.14,0 -2.236,-0.213 -3.29,-0.64 -1.053,-0.427 -1.926,-1.093 -2.62,-2 v -2.81 h 0.63 v 2.54 c 0.614,0.8 1.394,1.377 2.34,1.73 0.94,0.36 1.92,0.54 2.94,0.54 1.5,0 2.734,-0.343 3.7,-1.03 0.96,-0.687 1.44,-1.577 1.44,-2.67 0,-1.073 -0.393,-1.93 -1.18,-2.57 -0.78,-0.64 -2.14,-1.223 -4.08,-1.75 -1.946,-0.527 -3.37,-1.123 -4.27,-1.79 -0.9,-0.667 -1.35,-1.643 -1.35,-2.93 0,-1.273 0.53,-2.287 1.59,-3.04 1.06,-0.76 2.417,-1.14 4.07,-1.14 1.28,0 2.397,0.22 3.35,0.66 0.96,0.447 1.717,1.11 2.27,1.99 z m 16.139,0.06 v 2.97 h -0.65 v -2.74 c -0.52,-0.7 -1.217,-1.26 -2.09,-1.68 -0.88,-0.42 -1.877,-0.63 -2.99,-0.63 -2.027,0 -3.673,0.74 -4.94,2.22 -1.26,1.473 -1.89,3.407 -1.89,5.8 v 0.23 c 0,2.4 0.627,4.34 1.88,5.82 1.26,1.48 2.87,2.22 4.83,2.22 1.127,0 2.147,-0.207 3.06,-0.62 0.913,-0.42 1.627,-0.983 2.14,-1.69 v -2.74 h 0.65 v 2.98 c -0.573,0.833 -1.38,1.493 -2.42,1.98 -1.033,0.487 -2.177,0.73 -3.43,0.73 -2.16,0 -3.927,-0.803 -5.3,-2.41 -1.367,-1.607 -2.05,-3.697 -2.05,-6.27 v -0.21 c 0,-2.573 0.69,-4.663 2.07,-6.27 1.373,-1.6 3.173,-2.4 5.4,-2.4 1.233,0 2.353,0.243 3.36,0.73 1,0.48 1.79,1.14 2.37,1.98 z m 17.169,5.96 v 0.21 c 0,2.627 -0.66,4.73 -1.98,6.31 -1.313,1.58 -3.03,2.37 -5.15,2.37 -2.126,0 -3.85,-0.793 -5.17,-2.38 -1.32,-1.58 -1.98,-3.68 -1.98,-6.3 v -0.21 c 0,-2.613 0.657,-4.713 1.97,-6.3 1.314,-1.58 3.034,-2.37 5.16,-2.37 2.114,0 3.834,0.79 5.16,2.37 1.327,1.587 1.99,3.687 1.99,6.3 z m -0.64,0.21 v -0.23 c 0,-2.413 -0.59,-4.353 -1.77,-5.82 -1.186,-1.467 -2.766,-2.2 -4.74,-2.2 -1.966,0 -3.54,0.733 -4.72,2.2 -1.173,1.467 -1.76,3.407 -1.76,5.82 v 0.23 c 0,2.433 0.59,4.383 1.77,5.85 1.18,1.46 2.757,2.19 4.73,2.19 1.98,0 3.557,-0.73 4.73,-2.19 1.174,-1.467 1.76,-3.417 1.76,-5.85 z m 6.309,-8.63 v 0.63 h -1.68 l 5.5,14.77 0.3,0.92 h 0.07 l 0.31,-0.92 5.5,-14.77 h -1.68 v -0.63 h 3.62 v 0.63 h -1.25 l -6.14,16.43 h -0.78 l -6.14,-16.43 h -1.25 v -0.63 z m 25.738,17.06 h -12.3 v -0.63 h 1.91 v -15.8 h -1.91 v -0.63 h 12.3 v 3.43 h -0.64 v -2.8 h -9.11 v 7.22 h 7.38 v 0.63 h -7.38 v 7.95 h 9.11 v -2.8 h 0.64 z m 4.493,-17.05 h 4.85 c 1.8,0 3.183,0.39 4.15,1.17 0.973,0.773 1.46,1.907 1.46,3.4 0,0.96 -0.307,1.833 -0.92,2.62 -0.614,0.787 -1.454,1.297 -2.52,1.53 1.226,0.207 2.106,0.657 2.64,1.35 0.533,0.687 0.8,1.563 0.8,2.63 v 1.72 c 0,0.673 0.113,1.173 0.34,1.5 0.233,0.333 0.576,0.5 1.03,0.5 h 0.59 v 0.63 h -0.59 c -0.76,0 -1.284,-0.257 -1.57,-0.77 -0.294,-0.513 -0.44,-1.14 -0.44,-1.88 v -1.67 c 0,-1.16 -0.397,-2.063 -1.19,-2.71 -0.794,-0.647 -1.924,-0.97 -3.39,-0.97 h -4.6 v 7.38 h 1.91 v 0.63 h -4.46 v -0.63 h 1.91 V 122 h -1.91 v -0.63 z m 0.64,0.63 v 7.78 h 4.1 c 1.74,0 3.023,-0.367 3.85,-1.1 0.82,-0.733 1.23,-1.647 1.23,-2.74 0,-1.273 -0.417,-2.247 -1.25,-2.92 -0.827,-0.68 -2.067,-1.02 -3.72,-1.02 z" />
    <path
       style="display:inline;fill:#ffffff"
       id="path831"
       d="m 196.319,113.109 h 52.53 v 33.742 h -52.53 z m 5.728,22.311 v 3 h 3.41 v -3 z m 11.607,3 v -2.05 l -1.39,-0.35 v -6.8 c 0.247,-0.333 0.55,-0.593 0.91,-0.78 0.353,-0.18 0.757,-0.27 1.21,-0.27 0.7,0 1.22,0.177 1.56,0.53 0.347,0.353 0.52,0.957 0.52,1.81 v 5.51 l -1.47,0.35 v 2.05 h 6.54 v -2.05 l -1.64,-0.35 v -5.52 c 0,-1.72 -0.36,-2.983 -1.08,-3.79 -0.713,-0.8 -1.713,-1.2 -3,-1.2 -0.76,0 -1.45,0.177 -2.07,0.53 -0.62,0.36 -1.14,0.867 -1.56,1.52 l -0.15,-1.82 h -5 v 2.06 l 1.81,0.35 v 7.87 l -1.64,0.35 v 2.05 z m 17.707,-0.18 c 0.833,-0.28 1.513,-0.627 2.04,-1.04 l -0.93,-2.11 c -0.594,0.327 -1.14,0.567 -1.64,0.72 -0.5,0.153 -1.13,0.23 -1.89,0.23 -0.854,0 -1.527,-0.27 -2.02,-0.81 -0.494,-0.54 -0.774,-1.227 -0.84,-2.06 l 0.03,-0.07 h 7.57 v -1.86 c 0,-1.76 -0.474,-3.157 -1.42,-4.19 -0.947,-1.027 -2.277,-1.54 -3.99,-1.54 -1.74,-0.013 -3.127,0.59 -4.16,1.81 -1.034,1.22 -1.55,2.77 -1.55,4.65 v 0.47 c 0,1.807 0.546,3.297 1.64,4.47 1.093,1.173 2.553,1.76 4.38,1.76 1.02,0 1.946,-0.143 2.78,-0.43 z m -1.55,-9.45 c 0.34,0.433 0.51,1.013 0.51,1.74 v 0.31 h -4.19 l -0.04,-0.06 c 0.086,-0.787 0.313,-1.423 0.68,-1.91 0.366,-0.487 0.866,-0.73 1.5,-0.73 0.693,0 1.206,0.217 1.54,0.65 z m 7.124,-3.05 h -1.86 v 2.4 h 1.86 v 6.47 c 0,1.407 0.317,2.433 0.95,3.08 0.64,0.653 1.55,0.98 2.73,0.98 0.434,0 0.84,-0.03 1.22,-0.09 0.374,-0.06 0.75,-0.15 1.13,-0.27 l -0.29,-2.47 c -0.22,0.047 -0.416,0.08 -0.59,0.1 -0.173,0.02 -0.38,0.03 -0.62,0.03 -0.34,0 -0.613,-0.107 -0.82,-0.32 -0.2,-0.207 -0.3,-0.557 -0.3,-1.05 v -6.46 h 2.23 v -2.4 h -2.23 v -3.11 h -3.41 z" />
  </g>
</svg>
