<?xml version="1.0" encoding="UTF-8" standalone="no"?>
<!-- Generator: Assembly 1.0 - http://assemblyapp.co -->

<svg
   xmlns:dc="http://purl.org/dc/elements/1.1/"
   xmlns:cc="http://creativecommons.org/ns#"
   xmlns:rdf="http://www.w3.org/1999/02/22-rdf-syntax-ns#"
   xmlns:svg="http://www.w3.org/2000/svg"
   xmlns="http://www.w3.org/2000/svg"
   xmlns:sodipodi="http://sodipodi.sourceforge.net/DTD/sodipodi-0.dtd"
   xmlns:inkscape="http://www.inkscape.org/namespaces/inkscape"
   version="1.1"
   width="258.12299"
   height="44.381817"
   viewBox="0 0 258.12299 44.381817"
   id="svg4586"
   sodipodi:docname="logo-black.svg"
   inkscape:version="0.92.2 (5c3e80d, 2017-08-06)">
  <metadata
     id="metadata4592">
    <rdf:RDF>
      <cc:Work
         rdf:about="">
        <dc:format>image/svg+xml</dc:format>
        <dc:type
           rdf:resource="http://purl.org/dc/dcmitype/StillImage" />
        <dc:title></dc:title>
      </cc:Work>
    </rdf:RDF>
  </metadata>
  <defs
     id="defs4590" />
  <sodipodi:namedview
     pagecolor="#ffffff"
     bordercolor="#666666"
     borderopacity="1"
     objecttolerance="10"
     gridtolerance="10"
     guidetolerance="10"
     inkscape:pageopacity="0"
     inkscape:pageshadow="2"
     inkscape:window-width="2560"
     inkscape:window-height="1388"
     id="namedview4588"
     showgrid="false"
     inkscape:zoom="4.0633333"
     inkscape:cx="129.13371"
     inkscape:cy="1.2597416"
     inkscape:window-x="1912"
     inkscape:window-y="130"
     inkscape:window-maximized="1"
     inkscape:current-layer="widget" />
  <g
     id="widget"
     transform="translate(129.205,23.557419)">
    <path
       d="m -110.706,-18.0675 c -0.697,-2.9628 -3.268,-5.0978 -6.361,-5.0978 h -9.803 V 7.33404 h 9.803 c 4.705,0 6.753,-4.05205 6.753,-8.71409 V -14.4512 c 0,-1.22 -0.13,-2.4835 -0.392,-3.6163 z m -4.749,16.68745 c 0,2.43994 -0.523,4.31347 -2.745,4.31347 h -3.224 V -18.7647 h 3.224 c 2.222,0 2.745,1.8736 2.745,4.3135 z m -5.969,9.54193 h -6.274 V -21.0739 h -1.22 V 9.42542 h 9.803 c 1.612,0 3.094,-0.60999 4.226,-1.61211 -0.697,0.21785 -1.437,0.34857 -2.178,0.34857 z m 3.224,-26.14228 h -2.44 v 1.2636 h 0.436 c 2.178,0 2.701,1.8735 2.701,4.357 V 0.667761 c 0,0.522849 -0.043,1.002119 -0.087,1.481399 0.741,-0.26143 1.307,-1.04569 1.307,-3.48564 V -14.4076 c 0,-3.0935 -0.871,-3.5728 -1.917,-3.5728 z"
       id="path4551"
       inkscape:connector-curvature="0"
       style="fill:#000000;fill-opacity:1" />
    <path
       d="M -104.316,-23.1653 V 7.33404 h 5.4468 V -23.1653 Z m -0.784,2.0914 h -1.22 V 9.42542 h 5.447 V 8.16188 h -4.227 z"
       id="path4553"
       inkscape:connector-curvature="0"
       style="fill:#000000;fill-opacity:1" />
    <path
       d="m -80.3227,-6.78278 -5.4463,-6.27412 c -1.2636,-1.4378 -1.6121,-2.3964 -1.6121,-3.7907 0,-1.3506 1.1328,-2.3963 2.4835,-2.3963 1.3071,0 2.4399,1.2199 2.4399,3.3985 v 1.2199 h 5.4463 v -2.0913 c 0,-4.0957 -3.2678,-6.8406 -7.8862,-6.8406 -4.6185,0 -7.9298,2.7014 -7.9298,6.8406 0,4.1391 0.9149,5.4027 4.052,8.53976 l 4.5749,4.5749 c 1.22,1.21997 1.7428,2.52708 1.7428,4.18276 0,1.74282 -1.0892,2.78851 -2.4399,2.78851 -1.3507,0 -2.4835,-0.95855 -2.4835,-2.78851 v -2.87565 h -5.4028 v 3.180643 c 0,4.400617 3.5292,6.840557 7.8863,6.840557 4.357,0 8.1041,-2.43994 8.1041,-6.840557 0,-3.572773 -1.3507,-5.228453 -3.5292,-7.668393 z m -13.2454,7.711963 v -1.132831 h -1.2636 V 2.93342 c 0,4.44419 3.5292,6.88413 7.9298,6.88413 2.2221,0 4.2699,-0.65355 5.7513,-1.82996 -1.1328,0.39214 -2.3963,0.60999 -3.747,0.60999 -5.1849,0 -8.6705,-3.0935 -8.6705,-7.668397 z m 5.7948,-4.008483 h 1.22 v 1.26355 l 0.3486,0.30499 c 1.0892,1.307112 1.6992,2.483514 1.7428,4.05205 0.7407,-0.17428 1.22,-0.87141 1.22,-1.9171 0,-1.307113 -0.3922,-2.39637 -1.6121,-3.65992 l -4.4878,-4.53132 c -3.1371,-3.13705 -4.3135,-4.74915 -4.3135,-9.10625 0,-0.8278 0.1307,-1.5685 0.305,-2.2656 -0.9585,1.1328 -1.5249,2.6142 -1.5249,4.3134 0,4.1392 0.9149,5.3592 4.052,8.49627 z m 3.4421,-9.4984 h 5.3156 v -1.2199 h -4.2263 v -2.0043 c 0,-1.5685 -0.6536,-2.5706 -1.6557,-2.5706 -0.7843,0 -1.4378,0.5228 -1.6121,1.2635 1.1328,0.2179 2.0478,1.3943 2.0478,3.3114 v 1.0892 z"
       id="path4555"
       inkscape:connector-curvature="0"
       style="fill:#000000;fill-opacity:1" />
    <path
       d="m -54.7614,-16.7168 c 0,-3.1371 -2.4835,-6.8406 -7.9734,-6.8406 -6.0563,0 -8.2348,3.7035 -8.2348,6.8406 V 0.885613 c 0,3.137067 2.1785,6.840557 8.2348,6.840557 5.4899,0 7.9734,-3.70349 7.9734,-6.840557 V -1.46719 h -5.4899 v 2.309233 c 0,0.914977 -0.915,2.527087 -2.4835,2.527087 -1.9171,0 -2.7014,-1.61211 -2.7014,-2.527087 V -16.6733 c 0,-0.915 0.7843,-2.5271 2.7014,-2.5271 1.5685,0 2.4835,1.6121 2.4835,2.5271 v 2.3093 h 5.4899 z M -71.7974,0.929183 V -16.6733 c 0,-0.7407 0.1307,-1.4814 0.3921,-2.1785 -1.1328,1.2635 -1.6121,2.7885 -1.6121,4.2263 V 2.93342 c 0,3.13707 2.1785,6.88413 8.2348,6.88413 2.3964,0 4.2263,-0.7407 5.4899,-1.78639 -0.9586,0.34857 -2.135,0.56642 -3.4421,0.56642 -6.2741,0 -9.0626,-3.87777 -9.0626,-7.668397 z m 9.4983,1.612107 c 0.8279,-0.30499 1.22,-1.21997 1.22,-1.655677 v -1.524965 l -1.22,1.219972 z m 6.7099,-16.03389 h -5.4899 v -3.1371 c 0,-0.5228 -0.5664,-1.6992 -1.6557,-1.6992 -1.0893,0 -1.6121,0.6971 -1.8299,1.2199 1.4813,0.1307 2.2656,1.6121 2.2656,2.5271 v 2.3092 h 5.4899 z"
       id="path4557"
       inkscape:connector-curvature="0"
       style="fill:#000000;fill-opacity:1" />
    <path
       d="M -1.67809,-23.1653 -5.643,-0.595782 H -5.73014 L -9.60791,-23.1653 h -5.83839 l 6.75337,30.49934 h 5.79487 L 4.11678,-23.1653 Z m -1.1764,2.0478 H -3.7259 l -2.39637,13.68116 0.47927,2.52709 z m -12.98401,0 h -1.6557 l 6.7535,30.49935 h 5.79483 l 0.30499,-1.21997 h -4.70561 z"
       id="path4559"
       inkscape:connector-curvature="0"
       style="fill:#000000;fill-opacity:1" />
    <path
       d="m 14.8206,2.93342 v -9.89049 h 5.4899 v -4.35703 h -5.4899 v -7.4506 h 7.7119 v -4.4006 H 9.37428 V 7.33404 H 23.1425 V 2.93342 Z M 8.54644,-21.0739 H 7.32647 V 9.42542 H 21.0947 V 8.16188 H 8.54644 Z m 9.75976,16.16465 v -1.21998 h -2.7014 v 1.21998 z m 2.1785,-11.80755 v -1.2636 h -4.8799 v 1.2636 z"
       id="path4561"
       inkscape:connector-curvature="0"
       style="fill:#000000;fill-opacity:1" />
    <path
       d="m 39.9898,7.33404 h 5.6641 L 39.9026,-5.69352 c 2.6143,-1.30712 4.5749,-4.22633 4.5749,-8.75768 0,-4.8799 -2.4835,-8.7141 -7.7119,-8.7141 H 27.6593 V 7.33404 h 5.4463 V -4.95283 c 0.2179,0 0.915,0.04358 1.6993,0.04358 z M 33.1056,-9.57129 v -9.19341 h 3.4857 c 2.1349,0 2.7013,1.8736 2.7013,4.3135 0,4.48778 -1.0021,4.87991 -4.4877,4.87991 z M 26.8315,-21.0739 h -1.22 V 9.42542 h 5.4463 V 8.16188 h -4.2263 z m 9.7598,3.0935 h -2.7014 v 1.2636 h 0.6536 c 2.1785,0 2.7013,1.9171 2.7013,4.357 0,0.7407 0,1.3507 -0.0871,1.83 1.0457,-0.305 1.3071,-1.22 1.3071,-3.8778 0,-3.0935 -0.915,-3.5728 -1.8735,-3.5728 z M 39.4669,8.20545 34.282,-4.08142 c -0.1307,0 -0.2614,0 -0.3921,0 v 3.921343 l 4.0956,9.585497 h 5.6206 L 43.0833,8.20545 Z"
       id="path4563"
       inkscape:connector-curvature="0"
       style="fill:#000000;fill-opacity:1" />
    <path
       d="m -46.1924,-18.2895 c -3.458,2.9257 -5.6548,7.2997 -5.6473,12.1981 0.0132,8.78526 7.138,15.93127 15.9661,15.91791 3.9427,-0.00596 7.5831,-1.46854 10.3651,-3.87263 l 0.6867,0.68464 0.0029,1.92847 12.275,12.19511 0.911,-0.9137 L -23.8673,7.69367 -23.8702,5.7652 -24.5569,5.08055 c -2.7819,2.4041 -6.4224,3.86667 -10.3651,3.87264 -8.8281,0.01336 -15.9528,-7.13265 -15.9661,-15.91791 -0.0067,-4.43248 1.7914,-8.43558 4.6957,-11.32478 z m 3.3374,3.6766 c 1.8921,-1.543 4.3073,-2.4695 6.9407,-2.4735 6.0854,-0.0092 11.0212,4.9117 11.0304,10.99707 0.0045,2.98708 -1.1789,5.69717 -3.1047,7.68356 2.4803,-2.022714 4.0615,-5.10483 4.0563,-8.55688 -0.0092,-6.08535 -4.945,-11.00625 -11.0304,-10.99705 -3.0983,0.0047 -5.8947,1.2865 -7.8923,3.3468 z"
       id="path4565"
       inkscape:connector-curvature="0"
       style="fill:#000000;fill-opacity:1" />
    <path
       d="m -19.3499,3.41898 -1.9285,0.00292 -0.6867,-0.68464 c 2.3957,-2.7892052 3.8473,-6.39122 3.8413,-10.37673 -0.0133,-8.78523 -7.1381,-15.93123 -15.9662,-15.91793 -8.7853,0.0133 -15.9313,7.1381 -15.9179,15.96617 0.0133,8.78526 7.138,15.93127 15.9662,15.91791 3.9426,-0.00596 7.5831,-1.46854 10.365,-3.87263 l 0.6867,0.68464 0.0029,1.92847 12.275,12.19514 3.63719,-3.6482 z m -14.6992,0.02224 c -6.0854,0.00921 -11.0212,-4.91165 -11.0304,-10.99705 -0.0092,-6.08537 4.9116,-11.02117 10.997,-11.03037 6.0854,-0.0092 11.0212,4.9116 11.0304,10.99704 0.0092,6.0854 -4.9116,11.02117 -10.997,11.03038 z"
       id="path4567"
       inkscape:connector-curvature="0"
       style="fill:#000000;fill-opacity:1" />
    <path
       d="m 37.7467,20.7621 h 7.9142 v -7.9142 h -7.9142 z"
       id="path4569"
       inkscape:connector-curvature="0"
       style="fill:#000000;fill-opacity:1" />
    <path
       d="M 67.5674,-23.5574 V 1.00826 H 67.4408 L 60.0964,-23.5574 H 51.739 v 44.3195 h 7.9142 V -4.62664 h 0.1267 l 7.7875,25.38874 h 7.9142 v -44.3195 z"
       id="path4571"
       inkscape:connector-curvature="0"
       style="fill:#000000;fill-opacity:1" />
    <path
       d="m 100.68,-17.226 v -6.3314 H 81.5597 V 20.7621 H 101.567 V 14.4307 H 89.4739 V -0.0047522 h 8.0408 V -6.33611 H 89.4739 V -17.226 Z"
       id="path4573"
       inkscape:connector-curvature="0"
       style="fill:#000000;fill-opacity:1" />
    <path
       d="m 128.918,-23.5574 h -24.186 v 6.268 h 8.105 v 38.0515 h 7.914 v -38.0515 h 8.167 z"
       id="path4575"
       inkscape:connector-curvature="0"
       style="fill:#000000;fill-opacity:1" />
    <path
       d="M 33.0575,20.8244 H -2.42994 V 18.6562 H 33.0575 Z"
       id="path4577"
       inkscape:connector-curvature="0"
       style="fill:#000000;fill-opacity:1" />
    <path
       d="M 33.0575,17.5943 H -2.42994 V 12.9481 H 33.0575 Z"
       id="path4579"
       inkscape:connector-curvature="0"
       style="fill:#000000;fill-opacity:1" />
    <path
       d="M -28.7946,20.8244 H -129.205 v -2.1682 h 100.4104 z"
       id="path4581"
       inkscape:connector-curvature="0"
       style="fill:#000000;fill-opacity:1" />
    <path
       d="M -28.7946,17.5943 H -129.205 v -4.6462 h 100.4104 z"
       id="path4583"
       inkscape:connector-curvature="0"
       style="fill:#000000;fill-opacity:1" />
  </g>
</svg>
